<?xml version="1.0" standalone="no"?>
<!DOCTYPE svg PUBLIC "-//W3C//DTD SVG 20010904//EN"
 "http://www.w3.org/TR/2001/REC-SVG-20010904/DTD/svg10.dtd">
<svg version="1.0" xmlns="http://www.w3.org/2000/svg"
 width="467.000000pt" height="450.000000pt" viewBox="0 0 467.000000 450.000000"
 preserveAspectRatio="xMidYMid meet">
<metadata>
Created by potrace 1.16, written by Peter Selinger 2001-2019
</metadata>
<g transform="translate(0.000000,450.000000) scale(0.100000,-0.100000)"
fill="#000000" stroke="none">
<path d="M2145 4274 c-339 -51 -601 -178 -820 -398 -55 -56 -121 -130 -147
-166 -114 -161 -199 -353 -239 -540 -33 -154 -33 -421 0 -570 31 -141 79 -273
141 -384 335 -605 1034 -874 1688 -652 190 65 364 177 522 335 206 207 325
429 387 721 25 119 24 410 -1 530 -93 437 -364 793 -756 990 -177 89 -357 131
-580 135 -91 2 -178 1 -195 -1z m775 -767 l0 -213 -82 8 c-46 4 -171 16 -278
28 -311 34 -322 35 -359 16 -17 -9 -37 -28 -43 -41 -6 -14 -34 -35 -63 -50
-29 -14 -69 -43 -89 -65 -32 -35 -36 -46 -36 -93 0 -30 3 -56 6 -59 3 -4 31 6
62 20 l57 27 363 3 362 3 0 -210 0 -211 -330 0 -330 0 -2 -297 -3 -298 -232
-3 -233 -2 0 825 0 825 615 0 615 0 0 -213z"/>
<path d="M1604 1095 c-73 -37 -99 -81 -99 -171 0 -100 28 -139 148 -207 52
-29 93 -60 100 -74 13 -29 -2 -65 -38 -89 -49 -32 -105 14 -105 86 0 30 -1 30
-55 30 l-55 0 0 -45 c0 -123 98 -208 219 -190 65 10 136 83 146 149 16 103
-19 155 -160 235 -71 41 -81 50 -89 84 -13 50 15 91 66 95 48 4 70 -23 76 -93
l4 -55 54 0 54 0 0 58 c-1 95 -43 163 -122 197 -52 21 -86 19 -144 -10z"/>
<path d="M2680 1098 c-30 -16 -55 -41 -75 -73 -30 -48 -30 -49 -33 -225 -5
-238 14 -300 108 -347 109 -56 229 4 260 129 8 30 11 108 8 220 -3 156 -6 177
-26 215 -47 90 -156 126 -242 81z m134 -120 c13 -18 16 -56 16 -204 0 -162 -2
-184 -18 -205 -26 -31 -78 -31 -104 0 -16 21 -18 43 -18 209 0 211 3 222 71
222 28 0 42 -6 53 -22z"/>
<path d="M910 775 l0 -335 55 0 55 0 0 145 0 145 100 0 100 0 0 60 0 60 -100
0 -100 0 0 70 0 70 100 0 100 0 0 60 0 60 -155 0 -155 0 0 -335z"/>
<path d="M1320 775 l0 -336 58 3 57 3 -1 33 c0 17 -1 167 -2 332 l-2 300 -55
0 -55 0 0 -335z"/>
<path d="M1940 775 l0 -335 55 0 55 0 0 335 0 335 -55 0 -55 0 0 -335z"/>
<path d="M2147 1104 c-4 -4 -7 -155 -7 -336 l0 -328 55 0 55 0 0 166 c0 91 3
163 8 160 4 -2 41 -77 82 -165 l75 -161 42 0 43 0 0 336 0 335 -52 -3 -53 -3
4 -185 c2 -102 0 -182 -5 -177 -4 4 -42 87 -85 185 l-76 177 -40 3 c-21 2 -42
0 -46 -4z"/>
<path d="M2980 1102 c0 -5 29 -154 65 -333 36 -178 65 -325 65 -326 0 -2 27
-3 60 -3 54 0 60 2 65 23 12 57 125 633 125 640 0 4 -24 7 -54 7 -64 0 -53 27
-97 -238 -18 -106 -36 -189 -40 -185 -4 5 -19 80 -34 168 -15 88 -31 181 -37
208 l-10 47 -54 0 c-30 0 -54 -4 -54 -8z"/>
<path d="M3465 1088 c-4 -21 -22 -116 -61 -338 -8 -47 -24 -134 -34 -194 -11
-60 -20 -111 -20 -113 0 -2 25 -3 55 -3 54 0 54 0 61 35 l6 35 68 0 69 0 3
-32 c3 -33 4 -33 60 -36 50 -3 56 -1 52 15 -2 10 -26 153 -54 318 -28 165 -53
308 -56 318 -4 14 -17 17 -74 17 -64 0 -70 -2 -75 -22z"/>
</g>
</svg>
