<?xml version="1.0" standalone="no"?>
<!DOCTYPE svg PUBLIC "-//W3C//DTD SVG 20010904//EN"
 "http://www.w3.org/TR/2001/REC-SVG-20010904/DTD/svg10.dtd">
<svg version="1.0" xmlns="http://www.w3.org/2000/svg"
 width="467.000000pt" height="450.000000pt" viewBox="0 0 467.000000 450.000000"
 preserveAspectRatio="xMidYMid meet">
<metadata>
Created by potrace 1.16, written by Peter Selinger 2001-2019
</metadata>
<g transform="translate(0.000000,450.000000) scale(0.100000,-0.100000)"
fill="#000000" stroke="none">
<path d="M834 4400 c-127 -19 -267 -97 -343 -191 -193 -240 -178 -573 34 -785
116 -116 257 -171 410 -161 299 18 524 262 525 567 0 278 -186 510 -452 564
-83 17 -95 18 -174 6z m316 -315 c0 -61 -3 -85 -12 -85 -7 0 -67 7 -133 15
-134 16 -130 17 -199 -49 -39 -36 -44 -64 -10 -57 10 2 85 5 167 8 l147 5 0
-91 0 -91 -130 0 -130 0 0 -120 0 -121 -92 3 c-51 2 -92 6 -90 11 1 4 2 153 2
332 l0 325 240 0 240 0 0 -85z"/>
<path d="M1550 3894 l0 -145 28 3 c26 3 27 6 30 61 l3 57 34 0 c32 0 35 2 35
30 0 28 -2 30 -37 30 -34 0 -38 3 -38 25 0 22 4 25 38 25 35 0 37 2 37 30 l0
30 -65 0 -65 0 0 -146z"/>
<path d="M1815 4015 c-17 -16 -25 -35 -25 -60 0 -37 16 -59 75 -101 31 -22 28
-44 -6 -44 -14 0 -19 7 -19 25 0 20 -5 25 -25 25 -21 0 -25 -5 -25 -30 0 -38
39 -80 75 -80 33 0 75 42 75 75 0 39 -15 61 -60 86 -29 17 -40 29 -40 47 0 19
5 23 23 20 16 -2 23 -11 25 -30 3 -22 9 -28 28 -28 21 0 24 5 24 34 0 40 -41
86 -77 86 -13 0 -35 -11 -48 -25z"/>
<path d="M2040 3896 l0 -146 25 0 c24 0 25 2 25 68 l1 67 29 -65 c20 -46 35
-66 49 -68 20 -3 21 1 21 142 l0 146 -25 0 c-24 0 -25 -2 -26 -72 l0 -73 -28
70 c-21 52 -34 71 -50 73 -21 3 -21 0 -21 -142z"/>
<path d="M2249 4027 c-9 -7 -21 -22 -27 -34 -17 -31 -15 -168 3 -202 23 -46
66 -54 109 -20 25 20 26 24 26 124 0 100 -1 104 -26 124 -30 23 -61 26 -85 8z"/>
<path d="M2374 4008 c4 -18 16 -84 28 -145 20 -110 22 -113 47 -113 25 0 27 3
50 125 12 69 25 135 28 145 4 16 0 20 -20 20 -28 0 -33 -8 -42 -76 -12 -77
-21 -83 -30 -18 -5 33 -9 62 -11 67 -1 4 -2 12 -3 17 0 6 -13 10 -27 10 -25 0
-26 -2 -20 -32z"/>
<path d="M2541 3908 c-12 -73 -21 -139 -21 -145 0 -7 11 -13 25 -13 16 0 25 6
25 15 0 9 9 15 25 15 16 0 25 -6 25 -15 0 -9 9 -15 25 -15 14 0 25 6 25 13 0
23 -40 259 -46 268 -3 5 -18 9 -33 9 l-28 0 -22 -132z"/>
</g>
</svg>
